<svg width="33" height="33" viewBox="0 0 33 33" fill="none" xmlns="http://www.w3.org/2000/svg">
<path d="M30.2367 2.76336C28.4547 0.981363 26.0855 0 23.5654 0C21.0452 0 18.676 0.981363 16.8941 2.7633L9.8291 9.82839C9.82897 9.82852 9.82891 9.82859 9.82878 9.82872L2.7633 16.8941C0.981363 18.6761 0 21.0453 0 23.5654C0 26.0854 0.981363 28.4546 2.7633 30.2366C4.5453 32.0186 6.91453 33 9.43465 33C11.9548 33 14.324 32.0186 16.1059 30.2367L23.1709 23.1716C23.171 23.1715 23.1711 23.1714 23.1712 23.1713L30.2366 16.1059C32.0186 14.3239 33 11.9547 33 9.43465C33 6.91453 32.0186 4.5453 30.2367 2.76336ZM15.1762 29.307C13.6426 30.8406 11.6035 31.6853 9.43465 31.6853C7.2658 31.6853 5.22663 30.8406 3.69304 29.307C2.15937 27.7734 1.31471 25.7343 1.31471 23.5654C1.31471 21.3964 2.15937 19.3574 3.69304 17.8237L10.2936 11.2232L21.7768 22.7064L15.1762 29.307ZM29.307 15.1762L22.7064 21.7768L11.2232 10.2936L17.8238 3.69304C19.3574 2.15937 21.3965 1.31471 23.5654 1.31471C25.7342 1.31471 27.7734 2.15937 29.307 3.69304C30.8406 5.22663 31.6853 7.26574 31.6853 9.43465C31.6853 11.6035 30.8406 13.6426 29.307 15.1762Z" fill="white"/>
</svg>
