<?xml version="1.0" encoding="utf-8"?>
<svg xmlns="http://www.w3.org/2000/svg" height="512pt" version="1.1" viewBox="0 0 512 512" width="512pt">
<path d="M 0.00 0.00 L 512.00 0.00 L 512.00 512.00 L 0.00 512.00 L 0.00 0.00 Z" fill="#699baa" opacity="1.00" stroke="#699baa" stroke-width="0.25"/>
<path d="M 210.21 55.29 C 214.46 54.33 218.81 53.81 223.09 52.96 C 225.86 52.41 226.68 55.97 226.12 58.02 C 225.17 59.33 223.47 59.51 222.03 59.90 C 217.51 60.86 212.94 61.88 208.28 61.77 C 208.47 59.58 207.34 56.10 210.21 55.29 Z" fill="#fefefe" opacity="1.00" stroke="#fefefe" stroke-width="0.25"/>
<path d="M 240.92 59.09 C 238.45 58.02 238.66 52.65 241.89 52.89 C 245.51 52.66 249.13 52.96 252.74 53.26 C 252.81 55.07 252.83 56.88 252.81 58.70 C 248.85 58.85 244.88 59.39 240.92 59.09 Z" fill="#fefefe" opacity="1.00" stroke="#fefefe" stroke-width="0.25"/>
<path d="M 267.51 53.54 C 268.83 51.85 271.07 52.55 272.88 52.64 C 275.40 53.10 278.31 52.96 280.39 54.69 C 281.15 56.19 280.63 57.92 280.64 59.51 C 276.85 59.32 273.03 59.19 269.29 58.48 C 266.98 58.22 266.51 55.25 267.51 53.54 Z" fill="#fefefe" opacity="1.00" stroke="#fefefe" stroke-width="0.25"/>
<path d="M 292.22 54.17 C 296.29 52.70 300.65 54.71 304.68 55.54 C 307.69 55.83 307.47 60.38 305.16 61.49 C 300.83 61.35 296.48 60.78 292.32 59.57 C 289.60 59.14 290.01 55.09 292.22 54.17 Z" fill="#fefefe" opacity="1.00" stroke="#fefefe" stroke-width="0.25"/>
<path d="M 190.40 59.49 C 192.98 58.62 197.22 57.29 198.11 61.02 C 199.47 64.43 194.86 65.34 192.60 66.39 C 189.75 67.26 184.74 69.82 183.50 65.59 C 181.89 61.38 187.66 60.59 190.40 59.49 Z" fill="#fefefe" opacity="1.00" stroke="#fefefe" stroke-width="0.25"/>
<path d="M 318.40 61.47 C 319.97 60.15 322.17 60.75 324.03 60.84 C 326.29 61.16 329.00 61.43 330.44 63.47 C 331.69 65.26 330.15 67.98 327.98 67.83 C 325.08 67.86 322.08 67.64 319.37 66.57 C 317.52 65.73 316.58 62.81 318.40 61.47 Z" fill="#fefefe" opacity="1.00" stroke="#fefefe" stroke-width="0.25"/>
<path d="M 160.80 69.86 C 162.85 68.83 165.12 68.37 167.27 67.61 C 168.96 68.47 171.01 69.33 171.61 71.32 C 172.92 75.39 168.54 79.93 164.42 78.56 C 160.60 78.05 157.96 72.88 160.80 69.86 Z" fill="#fefefe" opacity="1.00" stroke="#fefefe" stroke-width="0.25"/>
<path d="M 345.41 71.48 C 349.06 70.28 352.51 72.94 355.85 74.10 C 358.48 75.26 362.73 76.86 361.51 80.56 C 359.60 84.34 355.64 81.12 353.02 80.03 C 350.02 78.24 345.29 78.84 343.72 75.17 C 342.88 73.74 344.35 72.28 345.41 71.48 Z" fill="#fefefe" opacity="1.00" stroke="#fefefe" stroke-width="0.25"/>
<path d="M 193.82 82.25 C 202.89 79.15 212.56 78.77 222.05 78.40 C 242.35 78.16 262.66 78.35 282.96 78.32 C 292.94 78.27 303.13 78.31 312.75 81.34 C 317.82 83.00 323.37 83.21 328.15 85.71 C 329.12 86.32 330.91 87.10 330.07 88.57 C 327.95 89.66 325.68 90.41 323.45 91.21 C 312.18 83.38 297.27 82.60 284.19 85.42 C 281.26 84.34 278.24 83.36 275.09 83.33 C 262.07 82.95 249.05 83.36 236.03 83.29 C 232.76 83.27 229.54 83.85 226.34 84.44 C 216.43 83.38 206.10 83.63 196.81 87.63 C 195.16 86.25 194.37 84.27 193.82 82.25 Z" fill="#80acb7" opacity="1.00" stroke="#80acb7" stroke-width="0.25"/>
<path d="M 226.34 84.44 C 229.54 83.85 232.76 83.27 236.03 83.29 C 249.05 83.36 262.07 82.95 275.09 83.33 C 278.24 83.36 281.26 84.34 284.19 85.42 C 276.76 87.79 269.92 91.91 264.47 97.50 C 262.11 99.61 260.16 102.44 257.14 103.64 C 252.01 98.83 247.44 93.27 241.15 89.88 C 236.61 87.14 231.47 85.64 226.34 84.44 Z" fill="#699baa" opacity="1.00" stroke="#699baa" stroke-width="0.25"/>
<path d="M 132.60 86.67 C 135.21 85.28 137.87 82.94 141.04 83.68 C 142.09 84.68 142.88 85.91 143.75 87.07 C 142.12 88.95 140.37 90.89 137.91 91.66 C 132.93 93.24 129.41 97.35 124.81 99.66 C 123.36 98.21 120.49 96.50 121.99 94.07 C 124.86 90.78 128.99 89.01 132.60 86.67 Z" fill="#fefefe" opacity="1.00" stroke="#fefefe" stroke-width="0.25"/>
<path d="M 196.81 87.63 C 206.10 83.63 216.43 83.38 226.34 84.44 C 231.47 85.64 236.61 87.14 241.15 89.88 C 247.44 93.27 252.01 98.83 257.14 103.64 C 260.16 102.44 262.11 99.61 264.47 97.50 C 269.92 91.91 276.76 87.79 284.19 85.42 C 297.27 82.60 312.18 83.38 323.45 91.21 C 326.78 93.55 329.80 96.32 332.49 99.37 C 333.85 100.94 335.14 102.58 336.32 104.29 C 342.88 115.53 343.79 129.51 340.56 141.95 C 340.03 143.67 339.37 145.34 338.62 146.98 C 335.91 152.86 332.77 158.60 328.88 163.78 C 327.66 165.29 326.39 166.75 325.12 168.20 C 320.45 173.36 315.40 178.16 310.20 182.78 C 307.63 184.98 304.95 187.06 302.29 189.15 C 295.94 193.92 289.91 199.09 283.56 203.85 C 281.49 205.35 279.41 206.84 277.39 208.40 C 275.88 209.59 274.49 210.91 273.13 212.26 C 298.77 212.55 324.41 212.18 350.05 212.38 C 357.63 212.27 364.88 217.58 367.54 224.59 C 367.84 226.32 368.04 228.07 368.17 229.82 C 368.29 282.53 368.09 335.25 368.24 387.97 C 368.15 397.65 368.46 407.36 367.68 417.02 C 367.41 423.49 363.15 429.40 357.46 432.32 C 354.23 433.91 350.54 433.69 347.05 433.74 C 284.35 433.72 221.65 433.69 158.95 433.82 C 151.92 434.30 145.53 429.85 141.83 424.16 C 140.46 421.50 141.05 418.38 140.33 415.55 C 140.29 415.23 140.22 414.58 140.18 414.26 C 139.92 411.85 139.85 409.43 139.85 407.02 C 139.69 357.34 139.80 307.66 139.79 257.98 C 140.01 247.29 139.52 236.59 140.16 225.91 C 140.11 222.32 142.55 219.42 145.04 217.12 C 147.77 214.68 151.14 212.67 154.88 212.50 C 162.43 212.02 170.02 212.48 177.56 211.82 C 188.07 211.99 198.58 211.72 209.08 211.90 C 218.86 212.25 228.64 212.27 238.42 212.05 C 235.26 208.86 231.55 206.35 227.82 203.91 C 221.89 199.47 216.39 194.48 210.69 189.75 C 208.28 187.70 205.84 185.69 203.43 183.64 C 198.06 179.00 193.39 173.63 188.75 168.28 C 187.24 166.46 185.70 164.68 184.21 162.84 C 180.32 157.84 177.23 152.26 174.34 146.65 C 173.74 145.10 173.21 143.52 172.74 141.93 C 171.35 136.80 170.99 131.44 171.15 126.15 C 171.26 124.34 171.42 122.53 171.65 120.73 C 172.67 114.84 174.76 109.04 178.23 104.13 C 179.15 102.84 180.09 101.57 181.02 100.28 C 185.53 95.26 190.50 90.30 196.81 87.63 Z" fill="#301421" opacity="1.00" stroke="#301421" stroke-width="0.25"/>
<path d="M 372.06 88.96 C 373.48 87.80 375.16 85.21 377.26 86.73 C 382.02 90.24 386.86 93.84 390.84 98.23 C 393.20 100.40 390.01 104.10 387.41 102.64 C 385.23 101.17 383.50 99.14 381.50 97.44 C 378.38 94.57 374.36 92.65 372.06 88.96 Z" fill="#fefefe" opacity="1.00" stroke="#fefefe" stroke-width="0.25"/>
<path d="M 259.12 117.18 C 266.49 104.70 278.95 93.72 293.98 92.76 C 301.39 92.57 309.24 93.27 315.70 97.23 C 323.34 101.83 329.66 109.05 332.17 117.71 C 335.53 129.11 333.06 141.77 326.54 151.60 C 316.89 166.59 302.75 177.89 288.97 188.90 C 279.23 196.51 269.73 204.44 260.14 212.23 C 257.72 214.47 253.91 215.18 251.49 212.54 C 234.51 198.54 216.82 185.33 201.04 169.94 C 191.09 159.71 181.03 147.81 179.57 133.04 C 177.36 114.21 192.08 94.95 211.04 92.82 C 220.13 92.05 229.83 93.38 237.56 98.52 C 243.83 102.36 248.97 107.70 253.72 113.24 C 255.12 115.03 257.13 116.15 259.12 117.18 Z" fill="#e34948" opacity="1.00" stroke="#e34948" stroke-width="0.25"/>
<path d="M 138.31 99.48 C 143.16 98.67 148.10 99.07 153.00 98.96 C 162.57 99.06 172.16 98.52 181.73 98.87 L 181.02 100.28 C 180.09 101.57 179.15 102.84 178.23 104.13 C 167.85 103.35 157.44 103.77 147.04 103.65 C 143.54 103.56 139.97 103.37 136.64 102.22 C 135.44 100.92 137.01 99.64 138.31 99.48 Z" fill="#80acb7" opacity="1.00" stroke="#80acb7" stroke-width="0.25"/>
<path d="M 332.49 99.37 C 343.32 99.11 354.16 99.26 365.00 99.28 C 367.42 99.43 371.61 99.66 371.80 102.82 C 370.36 103.72 368.62 103.76 366.99 103.83 C 356.77 104.02 346.52 103.41 336.32 104.29 C 335.14 102.58 333.85 100.94 332.49 99.37 Z" fill="#80acb7" opacity="1.00" stroke="#80acb7" stroke-width="0.25"/>
<path d="M 192.01 115.09 C 195.64 107.75 202.54 101.26 211.06 100.79 C 214.20 100.13 216.53 103.91 215.60 106.59 C 209.29 110.15 201.30 112.80 198.69 120.34 C 196.43 128.51 195.07 138.20 199.83 145.75 C 197.47 145.78 195.12 145.84 192.76 145.91 C 190.84 143.95 188.35 142.02 188.16 139.04 C 187.06 130.92 188.05 122.36 192.01 115.09 Z" fill="#fefefe" opacity="1.00" stroke="#fefefe" stroke-width="0.25"/>
<path d="M 109.28 115.24 C 111.24 113.66 114.48 115.59 114.30 118.00 C 114.49 120.94 111.36 122.05 109.53 123.65 C 106.87 125.50 104.62 128.90 101.02 128.60 C 97.67 128.17 97.03 123.37 99.82 121.81 C 102.94 119.58 106.03 117.29 109.28 115.24 Z" fill="#fefefe" opacity="1.00" stroke="#fefefe" stroke-width="0.25"/>
<path d="M 402.39 116.55 C 404.85 115.91 407.74 115.66 410.06 116.86 C 413.85 120.71 408.48 126.93 403.92 125.84 C 399.26 125.63 398.77 118.51 402.39 116.55 Z" fill="#fefefe" opacity="1.00" stroke="#fefefe" stroke-width="0.25"/>
<path d="M 112.53 126.02 C 113.59 123.28 115.62 120.39 118.99 120.89 C 136.54 121.02 154.10 120.61 171.65 120.73 C 171.42 122.53 171.26 124.34 171.15 126.15 C 161.09 126.65 151.01 126.07 140.94 126.32 C 131.47 126.22 121.99 126.61 112.53 126.02 Z" fill="#80acb7" opacity="1.00" stroke="#80acb7" stroke-width="0.25"/>
<path d="M 342.90 120.90 C 357.27 120.59 371.65 120.75 386.02 120.79 C 388.13 120.92 390.41 120.75 392.37 121.71 C 393.89 122.44 393.50 124.33 393.87 125.68 C 376.83 126.55 359.74 126.30 342.69 126.29 C 342.75 124.49 342.83 122.70 342.90 120.90 Z" fill="#80acb7" opacity="1.00" stroke="#80acb7" stroke-width="0.25"/>
<path d="M 415.12 136.92 C 414.88 135.04 417.08 133.61 418.78 134.21 C 422.52 137.48 425.91 142.52 423.54 147.59 C 422.19 147.56 420.85 147.55 419.51 147.52 C 417.69 144.17 415.65 140.75 415.12 136.92 Z" fill="#fefefe" opacity="1.00" stroke="#fefefe" stroke-width="0.25"/>
<path d="M 85.20 142.24 C 87.36 140.44 91.93 141.64 91.76 144.73 C 90.66 147.07 88.95 150.05 85.93 149.84 C 84.06 150.08 82.16 149.02 81.71 147.11 C 81.16 144.77 83.49 143.25 85.20 142.24 Z" fill="#fefefe" opacity="1.00" stroke="#fefefe" stroke-width="0.25"/>
<path d="M 95.11 142.43 C 113.39 142.29 131.66 142.42 149.93 142.37 C 157.54 142.30 165.16 142.75 172.74 141.93 C 173.21 143.52 173.74 145.10 174.34 146.65 L 174.84 148.02 C 148.27 147.71 121.71 148.08 95.15 147.80 C 95.13 146.01 95.12 144.22 95.11 142.43 Z" fill="#80acb7" opacity="1.00" stroke="#80acb7" stroke-width="0.25"/>
<path d="M 340.56 141.95 C 360.38 142.74 380.24 142.22 400.08 142.38 C 404.90 142.58 410.43 141.40 414.39 144.91 C 412.24 148.71 407.61 147.49 404.01 147.64 C 382.96 147.68 361.89 147.55 340.84 147.94 C 340.42 147.87 339.58 147.73 339.16 147.66 L 338.62 146.98 C 339.37 145.34 340.03 143.67 340.56 141.95 Z" fill="#80acb7" opacity="1.00" stroke="#80acb7" stroke-width="0.25"/>
<path d="M 430.42 157.57 C 433.04 155.19 436.03 158.89 436.38 161.49 C 437.45 164.63 435.85 167.60 433.94 169.99 C 430.54 166.93 429.71 161.90 430.42 157.57 Z" fill="#fefefe" opacity="1.00" stroke="#fefefe" stroke-width="0.25"/>
<path d="M 72.58 162.59 C 74.27 160.94 76.68 162.33 78.61 162.69 C 77.08 166.70 75.54 171.41 71.57 173.62 C 69.39 174.63 67.67 171.81 68.23 169.92 C 69.13 167.21 70.78 164.78 72.58 162.59 Z" fill="#fefefe" opacity="1.00" stroke="#fefefe" stroke-width="0.25"/>
<path d="M 82.10 164.13 C 108.05 163.30 134.01 163.43 159.97 163.37 C 168.05 163.27 176.15 163.61 184.21 162.84 C 185.70 164.68 187.24 166.46 188.75 168.28 C 183.53 169.01 178.26 168.46 173.02 168.56 C 142.70 168.66 112.39 168.51 82.07 168.60 C 82.08 167.11 82.09 165.62 82.10 164.13 Z" fill="#80acb7" opacity="1.00" stroke="#80acb7" stroke-width="0.25"/>
<path d="M 325.12 168.20 C 326.39 166.75 327.66 165.29 328.88 163.78 C 357.93 163.94 386.98 163.41 416.03 163.90 C 417.90 163.97 419.79 164.04 421.64 164.46 C 422.55 165.65 422.68 167.22 423.13 168.62 C 395.08 168.46 367.02 168.56 338.97 168.52 C 334.35 168.55 329.70 168.95 325.12 168.20 Z" fill="#80acb7" opacity="1.00" stroke="#80acb7" stroke-width="0.25"/>
<path d="M 434.80 187.05 C 433.81 184.27 434.79 180.54 437.94 179.75 C 442.06 178.15 446.72 181.70 446.67 186.00 C 446.14 189.42 442.67 192.39 439.12 191.64 C 437.04 191.57 436.22 189.42 435.29 187.93 L 434.80 187.05 Z" fill="#fefefe" opacity="1.00" stroke="#fefefe" stroke-width="0.25"/>
<path d="M 60.30 182.48 C 63.64 180.70 68.61 182.33 69.60 186.13 C 70.10 190.65 64.16 194.49 60.32 191.69 C 57.38 189.72 56.28 183.87 60.30 182.48 Z" fill="#fefefe" opacity="1.00" stroke="#fefefe" stroke-width="0.25"/>
<path d="M 302.29 189.15 C 304.95 187.06 307.63 184.98 310.20 182.78 C 313.37 183.72 316.66 184.20 319.98 184.14 C 354.66 184.19 389.35 184.38 424.03 183.97 C 427.76 184.01 432.91 182.76 434.80 187.05 L 435.29 187.93 C 433.64 188.71 431.97 189.68 430.08 189.62 C 393.39 189.64 356.69 189.47 320.00 189.78 C 314.09 189.73 308.14 190.24 302.29 189.15 Z" fill="#80acb7" opacity="1.00" stroke="#80acb7" stroke-width="0.25"/>
<path d="M 72.34 184.24 C 107.88 183.95 143.44 184.10 178.99 184.15 C 187.14 184.09 195.33 184.83 203.43 183.64 C 205.84 185.69 208.28 187.70 210.69 189.75 C 168.12 189.79 125.55 189.53 82.98 189.57 C 78.95 189.52 74.60 190.23 71.02 187.91 C 71.46 186.69 71.90 185.46 72.34 184.24 Z" fill="#80acb7" opacity="1.00" stroke="#80acb7" stroke-width="0.25"/>
<path d="M 445.81 198.62 C 449.56 197.22 450.52 202.24 450.92 204.92 C 451.90 208.41 449.33 211.32 447.71 214.12 C 445.07 209.42 445.67 203.80 445.81 198.62 Z" fill="#fefefe" opacity="1.00" stroke="#fefefe" stroke-width="0.25"/>
<path d="M 54.42 203.45 C 55.92 202.99 58.37 203.15 58.74 205.05 C 60.17 208.90 54.00 212.26 51.64 209.05 C 51.13 206.80 52.19 204.28 54.42 203.45 Z" fill="#fefefe" opacity="1.00" stroke="#fefefe" stroke-width="0.25"/>
<path d="M 65.00 204.12 C 92.00 204.08 119.01 204.18 146.01 204.28 C 169.66 204.85 193.32 205.19 216.98 205.09 C 220.63 205.21 224.30 204.94 227.82 203.91 C 231.55 206.35 235.26 208.86 238.42 212.05 C 228.64 212.27 218.86 212.25 209.08 211.90 C 198.58 211.72 188.07 211.99 177.56 211.82 C 172.20 210.30 166.63 210.85 161.15 210.45 C 137.20 207.94 113.09 209.58 89.07 209.06 C 81.08 208.73 73.09 209.39 65.11 208.78 C 65.07 207.22 65.04 205.67 65.00 204.12 Z" fill="#80acb7" opacity="1.00" stroke="#80acb7" stroke-width="0.25"/>
<path d="M 277.39 208.40 C 279.41 206.84 281.49 205.35 283.56 203.85 C 290.90 205.84 298.52 204.59 305.99 204.53 C 342.99 204.40 380.00 204.28 417.00 204.21 C 424.17 204.25 431.34 204.00 438.50 204.42 C 438.68 205.68 438.85 206.96 439.04 208.23 C 436.07 208.90 433.04 209.28 430.00 209.19 C 418.35 209.02 406.69 209.14 395.04 208.91 C 375.02 208.63 355.01 209.35 334.99 209.33 C 323.61 209.88 312.42 206.68 301.03 207.40 C 295.41 207.87 289.67 207.04 284.16 208.53 C 281.94 208.97 279.45 209.85 277.39 208.40 Z" fill="#80acb7" opacity="1.00" stroke="#80acb7" stroke-width="0.25"/>
<path d="M 147.84 228.17 C 148.30 223.35 153.59 220.67 158.03 221.17 C 219.03 221.26 280.03 220.48 341.03 221.09 C 345.83 221.35 351.46 219.95 355.42 223.48 C 358.47 226.02 358.93 230.21 358.79 233.92 C 358.60 245.70 358.97 257.48 358.55 269.26 C 293.04 269.02 227.52 269.27 162.00 269.12 C 157.25 269.14 152.47 269.43 147.78 268.51 C 147.69 265.63 147.65 262.75 147.67 259.88 C 152.21 259.61 156.85 260.41 161.32 259.45 C 162.51 257.80 162.86 254.53 160.34 254.03 C 156.19 253.54 151.97 253.97 147.80 253.59 C 147.72 251.57 147.66 249.55 147.62 247.53 C 156.39 246.12 165.35 246.98 174.18 246.38 C 176.47 244.66 175.79 240.89 172.94 240.37 C 164.58 240.45 156.22 240.72 147.86 240.44 C 148.02 238.40 148.16 236.36 148.28 234.32 C 155.20 234.28 162.13 234.20 169.05 234.33 C 170.81 234.19 173.00 234.75 174.28 233.16 C 175.78 231.02 173.51 228.04 171.10 228.21 C 163.35 228.08 155.58 228.69 147.84 228.17 Z" fill="#fbecda" opacity="1.00" stroke="#fbecda" stroke-width="0.25"/>
<path d="M 448.38 223.40 C 452.01 221.12 459.04 224.00 457.69 228.99 C 456.03 232.48 450.87 233.51 447.95 230.97 C 445.52 229.18 445.66 224.88 448.38 223.40 Z" fill="#fefefe" opacity="1.00" stroke="#fefefe" stroke-width="0.25"/>
<path d="M 54.24 224.28 C 59.71 223.43 60.27 232.41 56.10 234.51 C 50.94 234.57 51.83 226.81 54.24 224.28 Z" fill="#fefefe" opacity="1.00" stroke="#fefefe" stroke-width="0.25"/>
<path d="M 367.54 224.59 C 373.97 225.47 380.46 225.26 386.94 225.22 C 406.13 225.31 425.33 225.12 444.51 225.54 C 444.62 227.24 444.73 228.93 444.86 230.64 C 419.32 230.68 393.78 230.87 368.24 230.71 L 368.17 229.82 C 368.04 228.07 367.84 226.32 367.54 224.59 Z" fill="#80acb7" opacity="1.00" stroke="#80acb7" stroke-width="0.25"/>
<path d="M 60.09 225.14 C 65.70 224.75 71.32 225.05 76.93 225.13 C 97.71 224.83 118.51 224.55 139.30 225.09 C 139.25 227.00 139.20 228.90 139.16 230.81 C 114.46 230.79 89.76 230.72 65.07 230.69 C 63.61 230.64 62.14 230.63 60.73 230.25 C 59.90 228.72 60.32 226.81 60.09 225.14 Z" fill="#80acb7" opacity="1.00" stroke="#80acb7" stroke-width="0.25"/>
<path d="M 186.44 227.61 C 189.18 226.16 193.24 226.18 195.34 228.73 C 196.05 230.43 195.87 233.03 193.96 233.87 C 191.15 235.00 188.03 234.27 185.19 233.65 C 184.96 231.61 184.49 228.96 186.44 227.61 Z" fill="#301421" opacity="1.00" stroke="#301421" stroke-width="0.25"/>
<path d="M 184.36 244.03 C 185.43 242.36 186.48 239.77 188.94 240.14 C 191.06 240.36 193.94 239.67 195.24 241.88 C 196.65 244.63 194.10 248.22 191.03 247.85 C 188.07 248.32 185.81 246.34 184.36 244.03 Z" fill="#301421" opacity="1.00" stroke="#301421" stroke-width="0.25"/>
<path d="M 450.45 247.95 C 450.68 245.67 451.74 243.60 452.90 241.66 C 455.30 244.77 457.10 248.81 455.57 252.73 C 455.06 255.33 452.52 256.46 450.27 257.18 C 450.24 256.63 450.19 255.53 450.16 254.98 C 450.09 252.63 450.19 250.28 450.45 247.95 Z" fill="#fefefe" opacity="1.00" stroke="#fefefe" stroke-width="0.25"/>
<path d="M 48.97 247.69 C 61.97 248.33 75.00 247.74 88.01 247.93 C 105.04 247.74 122.07 248.07 139.09 247.45 C 139.23 249.43 139.36 251.41 139.50 253.39 C 109.77 253.30 80.04 253.47 50.32 253.15 C 49.87 251.32 49.42 249.51 48.97 247.69 Z" fill="#80acb7" opacity="1.00" stroke="#80acb7" stroke-width="0.25"/>
<path d="M 368.68 248.08 C 388.78 247.57 408.89 247.98 428.99 247.72 C 436.14 247.72 443.31 247.37 450.45 247.95 C 450.19 250.28 450.09 252.63 450.16 254.98 C 449.79 254.55 449.03 253.70 448.66 253.28 C 422.01 253.07 395.36 253.67 368.72 253.21 C 368.69 251.49 368.67 249.79 368.68 248.08 Z" fill="#80acb7" opacity="1.00" stroke="#80acb7" stroke-width="0.25"/>
<path d="M 47.54 266.62 C 50.84 264.50 54.26 267.00 56.75 269.13 L 57.34 269.62 C 58.65 274.06 54.56 279.02 49.94 278.27 C 45.56 276.58 43.53 269.75 47.54 266.62 Z" fill="#fefefe" opacity="1.00" stroke="#fefefe" stroke-width="0.25"/>
<path d="M 446.79 268.87 C 449.40 267.22 452.71 265.38 455.66 267.48 C 459.62 268.77 460.49 274.66 457.14 277.09 C 454.94 278.85 450.66 280.09 448.87 277.23 C 447.82 275.75 446.62 274.11 446.68 272.21 C 446.70 271.09 446.73 269.98 446.79 268.87 Z" fill="#fefefe" opacity="1.00" stroke="#fefefe" stroke-width="0.25"/>
<path d="M 56.75 269.13 C 59.15 268.72 61.56 268.38 64.00 268.33 C 89.08 268.27 114.16 268.59 139.23 268.16 C 139.24 270.29 139.23 272.42 139.21 274.55 C 124.47 273.71 109.70 274.49 94.96 274.07 C 85.29 273.78 75.61 273.89 65.94 273.91 C 62.47 274.16 59.87 271.57 57.34 269.62 L 56.75 269.13 Z" fill="#80acb7" opacity="1.00" stroke="#80acb7" stroke-width="0.25"/>
<path d="M 368.76 268.27 C 393.19 268.48 417.62 268.35 442.05 268.42 C 443.63 268.49 445.21 268.68 446.79 268.87 C 446.73 269.98 446.70 271.09 446.68 272.21 C 444.32 273.50 441.70 274.19 439.01 274.10 C 415.59 274.14 392.18 274.29 368.76 273.99 C 368.76 272.08 368.76 270.17 368.76 268.27 Z" fill="#80acb7" opacity="1.00" stroke="#80acb7" stroke-width="0.25"/>
<path d="M 147.26 276.24 C 152.83 275.59 158.44 275.90 164.03 275.84 C 228.86 275.70 293.69 276.00 358.52 275.75 C 358.83 321.87 358.73 367.99 358.75 414.10 C 359.11 420.71 352.19 425.80 346.01 425.47 C 282.64 425.15 219.27 425.49 155.91 425.14 C 151.87 425.55 149.78 421.65 148.01 418.73 C 157.09 418.33 166.21 418.81 175.28 418.28 C 178.52 417.85 178.16 412.37 174.92 412.24 C 166.11 412.19 157.29 412.66 148.48 412.30 C 148.10 410.74 147.72 409.17 147.37 407.62 C 153.23 406.86 159.16 407.55 165.03 407.07 C 167.63 406.80 168.70 403.67 167.40 401.60 C 160.88 400.32 154.17 401.25 147.58 400.66 C 147.58 399.59 147.56 397.46 147.56 396.40 C 156.15 394.90 164.96 396.02 173.63 395.52 C 176.40 394.69 176.24 389.25 172.97 389.25 C 164.52 389.09 156.07 389.49 147.62 389.25 C 147.61 387.43 147.62 385.62 147.64 383.82 C 153.70 383.13 159.82 383.80 165.87 383.18 C 166.49 382.15 167.06 381.09 167.58 380.00 C 167.23 379.41 166.52 378.23 166.17 377.64 C 159.94 377.26 153.71 377.52 147.48 377.32 C 147.51 375.50 147.56 373.68 147.64 371.87 C 156.06 371.36 164.50 371.87 172.92 371.60 C 176.99 371.64 175.74 364.26 171.99 365.15 C 163.90 365.23 155.81 365.41 147.73 365.18 C 147.65 363.40 147.58 361.61 147.52 359.84 C 152.98 359.27 158.47 359.46 163.95 359.47 C 167.02 359.89 169.01 354.32 165.62 353.44 C 159.57 352.82 153.43 353.81 147.41 352.72 C 147.39 351.29 147.39 349.86 147.40 348.44 C 155.82 346.96 164.42 348.07 172.91 347.59 C 176.16 347.43 175.50 340.71 172.04 341.25 C 163.92 341.22 155.80 341.57 147.68 341.34 C 147.64 339.51 147.61 337.69 147.60 335.87 C 153.57 335.51 159.56 335.65 165.53 335.46 C 166.34 333.52 166.22 331.45 165.53 329.51 C 159.51 329.38 153.50 329.54 147.49 329.40 C 147.47 327.70 147.45 326.00 147.45 324.30 C 156.46 323.03 165.59 324.19 174.65 323.62 C 175.04 321.57 175.78 317.65 172.78 317.47 C 164.78 316.87 156.74 317.80 148.74 317.20 C 146.71 316.22 147.81 313.59 147.49 311.82 C 155.30 310.81 163.20 311.53 171.05 311.13 C 173.21 311.15 175.26 309.93 176.38 308.10 C 176.57 306.31 174.64 304.81 173.00 304.72 C 164.43 304.71 155.86 304.94 147.31 304.55 C 147.39 302.98 147.49 301.41 147.61 299.84 C 153.37 299.54 159.14 299.79 164.90 299.57 C 168.24 299.73 168.45 293.23 164.87 293.49 C 159.15 293.31 153.43 293.73 147.72 293.38 C 147.61 291.70 147.52 290.03 147.43 288.36 C 156.17 286.80 165.12 287.87 173.94 287.64 C 175.68 287.40 175.72 284.95 176.62 283.80 C 175.37 282.74 174.15 281.34 172.34 281.50 C 164.06 281.22 155.77 281.48 147.48 281.20 C 147.39 279.54 147.32 277.89 147.26 276.24 Z" fill="#fbecda" opacity="1.00" stroke="#fbecda" stroke-width="0.25"/>
<path d="M 299.63 285.57 C 301.47 283.50 305.31 284.33 306.34 286.85 C 306.62 288.52 305.97 289.70 304.41 290.39 C 297.99 294.85 293.06 301.04 287.28 306.24 C 277.94 315.91 268.35 325.35 259.25 335.25 C 257.80 336.61 256.53 338.70 254.36 338.85 C 247.90 333.25 243.26 325.86 237.02 320.04 C 234.45 317.83 231.06 320.21 229.18 322.20 C 223.61 328.16 218.07 334.16 212.41 340.05 C 210.75 337.86 209.46 335.09 206.86 333.85 C 203.54 332.39 202.49 337.34 203.66 339.60 C 205.85 344.06 210.31 346.75 214.02 349.82 C 220.01 342.50 225.08 334.38 232.07 327.94 C 240.62 333.88 247.66 341.66 256.07 347.79 C 262.36 341.51 268.23 334.83 274.51 328.53 C 282.56 320.21 290.89 312.16 298.69 303.61 C 301.04 301.05 303.40 298.49 306.04 296.22 C 306.49 296.36 307.38 296.65 307.83 296.79 C 309.53 297.81 311.17 299.74 310.59 301.86 C 309.97 303.35 308.76 304.49 307.69 305.67 C 291.22 322.59 274.81 339.57 258.88 357.01 C 253.01 354.31 248.69 349.33 243.83 345.22 C 240.59 342.53 238.01 338.66 234.06 337.06 C 227.45 342.15 224.30 350.53 218.39 356.35 C 215.49 358.59 211.87 356.36 209.56 354.34 C 205.02 350.24 199.40 346.29 197.95 339.99 C 196.66 335.36 199.34 329.83 204.07 328.49 C 207.60 327.50 210.78 329.79 213.92 331.01 C 218.69 326.76 222.69 321.75 227.24 317.28 C 229.36 315.29 231.84 313.00 234.98 313.29 C 237.78 313.28 240.21 314.98 242.04 316.96 C 246.71 321.91 250.32 327.75 255.02 332.69 C 266.82 321.26 277.44 308.66 289.04 297.01 C 292.66 293.28 295.79 289.09 299.63 285.57 Z" fill="#301421" opacity="1.00" stroke="#301421" stroke-width="0.25"/>
<path d="M 449.24 287.59 C 454.19 290.20 452.18 296.81 449.01 300.07 C 444.74 296.81 447.00 291.36 449.24 287.59 Z" fill="#fefefe" opacity="1.00" stroke="#fefefe" stroke-width="0.25"/>
<path d="M 59.29 291.64 C 60.79 291.04 62.34 290.47 63.98 290.49 C 88.97 290.39 113.97 290.39 138.96 290.34 C 139.07 292.22 139.18 294.09 139.28 295.97 C 114.54 295.63 89.78 295.77 65.03 295.69 C 63.27 295.60 61.53 295.41 59.78 295.22 C 59.64 294.02 59.48 292.83 59.29 291.64 Z" fill="#80acb7" opacity="1.00" stroke="#80acb7" stroke-width="0.25"/>
<path d="M 287.28 306.24 C 293.06 301.04 297.99 294.85 304.41 290.39 C 304.38 291.99 304.37 293.60 304.35 295.22 C 305.51 295.74 306.67 296.26 307.83 296.79 C 307.38 296.65 306.49 296.36 306.04 296.22 C 303.40 298.49 301.04 301.05 298.69 303.61 C 290.89 312.16 282.56 320.21 274.51 328.53 C 268.23 334.83 262.36 341.51 256.07 347.79 C 247.66 341.66 240.62 333.88 232.07 327.94 C 225.08 334.38 220.01 342.50 214.02 349.82 C 210.31 346.75 205.85 344.06 203.66 339.60 C 202.49 337.34 203.54 332.39 206.86 333.85 C 209.46 335.09 210.75 337.86 212.41 340.05 C 218.07 334.16 223.61 328.16 229.18 322.20 C 231.06 320.21 234.45 317.83 237.02 320.04 C 243.26 325.86 247.90 333.25 254.36 338.85 C 256.53 338.70 257.80 336.61 259.25 335.25 C 268.35 325.35 277.94 315.91 287.28 306.24 Z" fill="#60d0e9" opacity="1.00" stroke="#60d0e9" stroke-width="0.25"/>
<path d="M 368.90 290.29 C 393.22 290.61 417.54 290.33 441.87 290.37 C 442.23 292.13 442.60 293.89 442.99 295.65 C 418.23 295.84 393.46 295.79 368.70 295.76 C 368.76 293.93 368.82 292.11 368.90 290.29 Z" fill="#80acb7" opacity="1.00" stroke="#80acb7" stroke-width="0.25"/>
<path d="M 46.50 291.76 C 50.72 291.03 55.03 291.63 59.29 291.64 C 59.48 292.83 59.64 294.02 59.78 295.22 C 60.04 296.47 58.91 297.38 57.79 297.56 C 54.29 298.28 50.62 298.49 47.09 297.88 C 44.25 297.53 43.36 292.43 46.50 291.76 Z" fill="#fefefe" opacity="1.00" stroke="#fefefe" stroke-width="0.25"/>
<path d="M 52.61 312.99 C 53.44 309.58 58.71 311.04 58.85 314.22 C 59.04 316.07 59.12 317.94 59.09 319.81 C 58.67 321.43 56.88 322.19 55.39 321.49 C 52.90 319.52 52.19 316.00 52.61 312.99 Z" fill="#fefefe" opacity="1.00" stroke="#fefefe" stroke-width="0.25"/>
<path d="M 58.85 314.22 C 60.76 313.16 62.77 312.11 65.03 312.25 C 89.77 312.34 114.52 312.33 139.26 312.11 C 139.28 314.16 139.30 316.21 139.33 318.26 C 122.89 318.12 106.44 318.22 90.00 318.07 C 80.09 317.92 70.14 318.54 60.27 317.39 C 59.87 318.19 59.48 319.00 59.09 319.81 C 59.12 317.94 59.04 316.07 58.85 314.22 Z" fill="#80acb7" opacity="1.00" stroke="#80acb7" stroke-width="0.25"/>
<path d="M 368.80 312.28 C 392.61 312.33 416.42 312.10 440.23 312.17 C 440.34 313.94 440.46 315.71 440.58 317.48 C 433.11 318.46 425.57 318.14 418.06 318.17 C 401.59 318.07 385.12 318.57 368.65 318.22 C 368.70 316.23 368.75 314.26 368.80 312.28 Z" fill="#80acb7" opacity="1.00" stroke="#80acb7" stroke-width="0.25"/>
<path d="M 440.23 312.17 C 445.14 311.66 450.11 311.51 455.02 311.96 C 457.54 312.49 457.65 317.58 454.65 317.38 C 449.97 317.88 445.26 317.45 440.58 317.48 C 440.46 315.71 440.34 313.94 440.23 312.17 Z" fill="#fefefe" opacity="1.00" stroke="#fefefe" stroke-width="0.25"/>
<path d="M 437.27 330.89 C 438.81 331.43 440.91 331.84 440.79 333.96 C 440.91 338.55 437.08 342.04 433.88 344.84 C 433.31 343.65 431.85 342.60 432.24 341.14 C 433.57 337.57 435.57 334.29 437.27 330.89 Z" fill="#fefefe" opacity="1.00" stroke="#fefefe" stroke-width="0.25"/>
<path d="M 60.72 334.94 C 60.23 332.23 64.22 331.30 65.45 333.47 C 67.48 336.42 69.37 339.56 70.36 343.03 C 70.80 345.04 68.39 346.00 67.27 347.26 C 64.40 343.59 61.78 339.53 60.72 334.94 Z" fill="#fefefe" opacity="1.00" stroke="#fefefe" stroke-width="0.25"/>
<path d="M 72.13 334.86 C 78.04 334.01 84.01 334.46 89.95 334.37 C 106.34 334.25 122.72 334.54 139.11 334.26 C 139.18 336.14 139.25 338.02 139.32 339.90 C 121.56 339.46 103.79 339.76 86.03 339.70 C 82.01 339.58 77.88 340.20 73.94 339.21 C 73.21 337.81 72.70 336.32 72.13 334.86 Z" fill="#80acb7" opacity="1.00" stroke="#80acb7" stroke-width="0.25"/>
<path d="M 368.92 334.36 C 390.21 334.57 411.51 334.13 432.79 334.52 C 432.48 336.14 432.47 337.97 431.36 339.32 C 429.00 340.06 426.47 339.89 424.03 339.92 C 405.65 339.56 387.26 339.87 368.88 339.73 C 368.88 337.94 368.90 336.14 368.92 334.36 Z" fill="#80acb7" opacity="1.00" stroke="#80acb7" stroke-width="0.25"/>
<path d="M 422.21 358.01 C 423.87 352.92 431.53 355.04 433.46 358.91 C 434.14 362.58 430.87 366.56 427.01 365.96 C 424.38 366.20 422.48 363.62 422.09 361.29 C 422.12 360.47 422.18 358.83 422.21 358.01 Z" fill="#fefefe" opacity="1.00" stroke="#fefefe" stroke-width="0.25"/>
<path d="M 73.22 357.78 C 76.06 356.68 79.36 354.48 82.21 356.82 C 86.81 359.19 85.04 367.30 80.03 367.71 C 75.31 367.07 73.03 362.11 73.22 357.78 Z" fill="#fefefe" opacity="1.00" stroke="#fefefe" stroke-width="0.25"/>
<path d="M 91.93 357.11 C 107.72 356.25 123.55 356.92 139.36 356.78 C 139.32 358.49 139.29 360.21 139.26 361.93 C 123.68 361.19 108.07 362.00 92.48 361.42 C 92.31 359.98 92.12 358.54 91.93 357.11 Z" fill="#80acb7" opacity="1.00" stroke="#80acb7" stroke-width="0.25"/>
<path d="M 368.71 357.15 C 381.47 357.05 394.24 356.98 407.01 357.16 C 412.08 357.33 417.29 356.37 422.21 358.01 C 422.18 358.83 422.12 360.47 422.09 361.29 C 416.47 362.56 410.70 361.96 405.00 362.02 C 392.91 362.02 380.83 362.37 368.75 361.91 C 368.73 360.32 368.72 358.73 368.71 357.15 Z" fill="#80acb7" opacity="1.00" stroke="#80acb7" stroke-width="0.25"/>
<path d="M 95.97 379.14 C 98.09 375.54 102.55 376.47 106.06 376.33 C 117.21 376.51 128.37 375.96 139.51 376.54 C 139.40 378.40 139.29 380.27 139.18 382.14 C 125.54 381.98 111.89 382.06 98.24 382.11 C 98.00 382.54 97.54 383.38 97.30 383.81 C 96.96 382.22 96.54 380.65 95.97 379.14 Z" fill="#80acb7" opacity="1.00" stroke="#80acb7" stroke-width="0.25"/>
<path d="M 368.74 376.82 C 379.50 376.87 390.28 376.48 401.03 376.87 C 403.81 376.74 403.63 379.73 403.99 381.67 C 392.24 382.24 380.46 382.29 368.71 382.03 C 368.72 380.29 368.73 378.55 368.74 376.82 Z" fill="#80acb7" opacity="1.00" stroke="#80acb7" stroke-width="0.25"/>
<path d="M 405.21 379.75 C 406.10 378.83 406.95 377.86 408.01 377.13 C 409.94 376.56 411.31 378.22 412.60 379.35 C 414.36 381.13 416.29 382.85 417.51 385.08 C 418.24 387.31 416.11 389.47 413.90 389.34 C 410.12 387.09 408.01 383.00 405.21 379.75 Z" fill="#fefefe" opacity="1.00" stroke="#fefefe" stroke-width="0.25"/>
<path d="M 86.51 381.94 C 86.62 377.24 93.09 376.10 95.97 379.14 C 96.54 380.65 96.96 382.22 97.30 383.81 C 95.95 389.82 85.94 387.85 86.51 381.94 Z" fill="#fefefe" opacity="1.00" stroke="#fefefe" stroke-width="0.25"/>
<path d="M 391.59 399.41 C 389.97 396.59 391.92 392.79 395.06 392.23 C 398.15 391.37 401.58 393.12 402.82 396.03 C 403.46 398.55 401.36 400.61 400.24 402.65 C 397.22 402.20 393.40 402.36 391.59 399.41 Z" fill="#fefefe" opacity="1.00" stroke="#fefefe" stroke-width="0.25"/>
<path d="M 115.49 398.35 C 117.19 397.42 119.02 396.67 121.00 396.77 C 127.11 396.68 133.22 396.67 139.33 396.73 C 139.32 398.23 139.32 399.74 139.31 401.25 C 132.17 401.34 125.02 401.30 117.88 400.91 C 117.09 400.05 116.29 399.20 115.49 398.35 Z" fill="#80acb7" opacity="1.00" stroke="#80acb7" stroke-width="0.25"/>
<path d="M 368.82 397.15 C 374.25 397.03 379.69 396.99 385.12 397.25 C 384.69 398.69 385.48 401.15 383.35 401.33 C 378.57 402.23 373.65 401.67 368.81 401.77 C 368.77 400.23 368.78 398.69 368.82 397.15 Z" fill="#80acb7" opacity="1.00" stroke="#80acb7" stroke-width="0.25"/>
<path d="M 106.00 398.97 C 108.90 397.16 112.34 397.67 115.49 398.35 C 116.29 399.20 117.09 400.05 117.88 400.91 C 117.81 403.97 117.83 407.91 114.62 409.49 C 111.18 411.08 108.47 407.73 106.39 405.51 C 104.69 403.84 104.53 400.81 106.00 398.97 Z" fill="#fefefe" opacity="1.00" stroke="#fefefe" stroke-width="0.25"/>
<path d="M 383.93 403.89 C 385.44 402.28 387.97 402.49 389.54 403.90 C 390.04 407.57 386.92 410.20 384.56 412.49 C 382.00 414.63 379.48 417.37 376.05 417.94 C 373.20 418.17 371.99 415.17 371.01 413.06 C 375.87 410.84 379.98 407.42 383.93 403.89 Z" fill="#fefefe" opacity="1.00" stroke="#fefefe" stroke-width="0.25"/>
<path d="M 259.56 412.55 C 263.55 411.47 267.85 411.51 271.89 412.33 C 274.47 412.74 274.51 417.42 271.79 417.62 C 268.23 417.96 264.57 418.44 261.02 417.79 C 258.44 417.38 259.37 414.33 259.56 412.55 Z" fill="#301421" opacity="1.00" stroke="#301421" stroke-width="0.25"/>
<path d="M 285.57 411.90 C 288.43 411.66 291.48 411.49 294.17 412.67 C 296.46 413.86 296.04 418.13 293.13 418.04 C 289.42 418.21 285.42 418.63 281.94 417.08 C 280.40 414.54 282.89 411.71 285.57 411.90 Z" fill="#301421" opacity="1.00" stroke="#301421" stroke-width="0.25"/>
<path d="M 194.13 412.25 C 197.28 411.57 200.71 411.22 203.83 412.20 C 206.44 412.64 206.72 417.49 203.98 417.71 C 200.20 417.99 196.33 418.12 192.58 417.49 C 190.96 415.85 191.87 412.69 194.13 412.25 Z" fill="#301421" opacity="1.00" stroke="#301421" stroke-width="0.25"/>
<path d="M 214.52 412.45 C 218.28 411.59 222.21 411.32 226.03 411.99 C 227.94 412.28 229.81 414.01 229.26 416.10 C 228.54 418.86 225.09 417.57 223.02 417.91 C 219.98 417.56 216.45 418.78 213.76 417.05 C 213.67 415.47 214.19 413.96 214.52 412.45 Z" fill="#301421" opacity="1.00" stroke="#301421" stroke-width="0.25"/>
<path d="M 239.09 412.22 C 242.03 411.50 245.13 411.64 248.14 411.83 C 250.68 412.11 253.28 415.97 250.12 417.47 C 246.53 418.50 242.65 418.28 239.00 417.77 C 236.23 417.34 236.72 412.87 239.09 412.22 Z" fill="#301421" opacity="1.00" stroke="#301421" stroke-width="0.25"/>
<path d="M 305.37 412.51 C 309.01 411.04 313.27 411.73 317.10 412.13 C 320.08 412.09 321.02 417.24 317.99 417.70 C 313.74 418.26 309.31 418.51 305.09 417.61 C 302.82 416.64 303.82 413.70 305.37 412.51 Z" fill="#301421" opacity="1.00" stroke="#301421" stroke-width="0.25"/>
<path d="M 330.21 412.29 C 334.00 411.55 337.99 411.63 341.79 412.33 C 343.94 412.79 343.99 415.60 343.38 417.28 C 338.91 418.87 333.95 417.84 329.32 417.60 C 326.60 416.91 328.01 412.76 330.21 412.29 Z" fill="#301421" opacity="1.00" stroke="#301421" stroke-width="0.25"/>
<path d="M 133.94 414.24 C 136.02 414.22 138.10 414.22 140.18 414.26 C 140.22 414.58 140.29 415.23 140.33 415.55 C 140.14 417.72 140.24 419.89 140.36 422.06 C 137.39 420.27 133.83 418.23 133.94 414.24 Z" fill="#fefefe" opacity="1.00" stroke="#fefefe" stroke-width="0.25"/>
<path d="M 304.21 440.10 C 305.88 439.56 308.09 438.72 309.43 440.44 C 310.44 442.19 310.23 445.36 307.78 445.73 C 303.29 447.16 298.69 448.57 293.95 448.74 C 291.38 449.17 288.70 445.16 291.69 443.78 C 295.61 441.84 300.14 441.69 304.21 440.10 Z" fill="#fefefe" opacity="1.00" stroke="#fefefe" stroke-width="0.25"/>
<path d="M 202.79 442.75 C 204.73 441.78 206.95 442.66 208.95 443.01 C 214.53 444.53 220.47 444.48 225.83 446.78 C 225.31 448.29 224.91 449.87 224.07 451.25 C 217.38 451.63 210.73 450.04 204.23 448.64 C 201.47 448.22 200.97 444.51 202.79 442.75 Z" fill="#fefefe" opacity="1.00" stroke="#fefefe" stroke-width="0.25"/>
<path d="M 276.29 447.32 C 277.85 447.32 280.02 446.46 280.83 448.33 C 282.17 449.92 281.33 452.92 279.05 453.05 C 274.77 453.83 270.38 454.60 266.02 454.27 C 264.39 452.96 263.87 450.04 265.90 448.84 C 269.27 447.86 272.83 447.84 276.29 447.32 Z" fill="#fefefe" opacity="1.00" stroke="#fefefe" stroke-width="0.25"/>
<path d="M 239.06 454.02 C 236.79 453.44 235.51 449.88 237.98 448.68 C 242.31 448.50 246.70 448.51 250.99 449.13 C 253.31 450.11 251.96 452.79 251.62 454.57 C 247.44 454.52 243.14 455.10 239.06 454.02 Z" fill="#fefefe" opacity="1.00" stroke="#fefefe" stroke-width="0.25"/>
</svg>